<svg width="75" height="75" viewBox="0 0 75 75" fill="none" xmlns="http://www.w3.org/2000/svg">
<path fill-rule="evenodd" clip-rule="evenodd" d="M37.0256 0L0 37.1773L37.0256 74.786L74.8768 36.882L37.0256 0ZM38.4037 4.45106L70.9335 36.3976L45.7996 29.6193L38.4037 4.45106ZM4.99824 35.0225L23.6536 23.9847L35.4875 4.43947L4.99824 35.0225ZM30.3073 45.7306L49.0064 50.6265L37.0347 70.7556L30.3073 45.7306ZM35.9876 70.7076L4.78709 39.0486L29.1947 45.4393L35.9876 70.7076ZM36.4388 72.3859L36.3277 72.4971L36.4688 72.4976L36.4388 72.3859ZM70.8916 37.259L51.1517 48.5148L46.1295 30.7087L70.8916 37.259ZM43.8869 30.1155L49.1034 48.6106L29.7169 43.5346L24.7485 25.0528L43.8869 30.1155ZM67.71 41.4285L40.9856 68.0719L51.0518 51.0211L67.71 41.4285ZM3.74653 36.7463L28.6194 43.2576L23.7898 25.0838L3.74653 36.7463ZM43.6172 29.0384L36.6131 4.33386L24.8082 24.0492L43.6172 29.0384Z" fill="url(#paint0_linear_3_57)"/>
<defs>
<linearGradient id="paint0_linear_3_57" x1="-4.44487" y1="30.2783" x2="30.7174" y2="77.5751" gradientUnits="userSpaceOnUse">
<stop stop-color="#C1C432"/>
<stop offset="1" stop-color="#3BDFCB" stop-opacity="0.81"/>
</linearGradient>
</defs>
</svg>
